<svg role="img" viewBox="0 0 24 24" xmlns="http://www.w3.org/2000/svg" ><path fill="#002cc4" d="M6.582 1.728q-1.18 0-1.983.257-.802.257-1.284.786-.483.53-.695 1.34-.213.811-.212 1.918v2.569q0 1.316-.534 1.878-.533.562-1.874.562v1.925q1.34 0 1.874.562.533.563.534 1.879v2.567q0 1.107.212 1.918.213.81.695 1.34.482.529 1.284.786.802.256 1.983.257v-1.573q-.931-.001-1.465-.293a1.62 1.62 0 0 1-.754-.895q-.22-.602-.221-1.542v-3.21q0-.625-.165-1.14a1.9 1.9 0 0 0-.605-.882q-.442-.37-1.257-.57c-.069-.017-.147-.03-.221-.044v-.248c.074-.014.152-.027.221-.043q.815-.201 1.257-.57.44-.37.605-.883t.165-1.14V6.03q0-.939.221-1.545.221-.607.754-.895.534-.289 1.465-.289zm10.836 0V3.3q.931 0 1.465.289.533.288.754.895t.221 1.545v3.21q0 .627.165 1.14t.605.883q.443.369 1.257.57v-.002c.068.016.147.03.22.044v.248c-.073.015-.152.026-.22.044q-.815.2-1.257.57-.44.369-.605.882-.165.515-.165 1.14v3.21q0 .94-.221 1.542t-.754.894q-.534.293-1.465.293v1.573q1.18 0 1.983-.257.803-.256 1.284-.786.483-.528.695-1.34.213-.81.212-1.918v-2.567q0-1.316.534-1.878T24 12.962v-1.924q-1.34 0-1.874-.562-.535-.562-.534-1.878V6.029q0-1.107-.212-1.918-.213-.81-.695-1.34-.482-.529-1.284-.786-.804-.256-1.983-.257m-2.117 1.536c-1.211-.002-3.298 1.328-5.294 4.476-.007.01-.999 1.658-1.045 1.658-.257-.286-.306-.352-.52-.535q-.018-.017-.034-.032c-.896-.797-2.346-1.284-3.118-.787-.053.033 1.42.567 3.454 3.602l.015.023h.002c.421.558.436.795.523.636.058-.106.864-1.66 1.343-2.624 1.715-3.364 3.376-5.19 5.338-6.215 0 0-.086-.202-.664-.202m3.24 8.37a.14.14 0 0 0-.106.048c-.052.062-.272.083-.52.049-.41-.056-.486-.01-1.699 1.048-.698.609-1.32 1.107-1.38 1.107s-.393-.428-.74-.952l-.629-.951-.563.062c-1.023.114-1.027.146-.252 1.81l.692 1.482-.435.4c-1.075.992-2.564 2.503-2.921 2.964-.481.623-.538 1.258-.146 1.626l-.001.003c.232.219 1.034.196 1.944-.917 1.033-1.263 2.367-2.722 2.488-2.72.054.002.464.432.91.957.976 1.145 1.212 1.327 1.531 1.178.126-.058.265-.103.232-.196.019-.151.113-.271.252-.425l.184-.142a.15.15 0 0 0 .016-.175l-.774-1.251c-.458-.74-.832-1.385-.832-1.436 0-.084 1.857-1.935 2.728-2.717.212-.19.387-.421.387-.512 0-.173-.214-.343-.366-.34"/></svg>
